<svg xmlns="http://www.w3.org/2000/svg" version="1.1" xmlns:xlink="http://www.w3.org/1999/xlink" xmlns:svgjs="http://svgjs.dev/svgjs" viewBox="0 0 2400 800" opacity="0.89"><defs><linearGradient x1="50%" y1="0%" x2="50%" y2="100%" id="oooscillate-grad"><stop stop-color="#957db5" stop-opacity="1" offset="0%"></stop><stop stop-color="#dc4881" stop-opacity="1" offset="100%"></stop></linearGradient></defs><g stroke-width="10" stroke="url(#oooscillate-grad)" fill="none" stroke-linecap="round"><path d="M 0 234 Q 600 170 1200 400 Q 1800 630 2400 234"></path><path d="M 0 231 Q 600 170 1200 400 Q 1800 630 2400 231"></path><path d="M 0 228 Q 600 170 1200 400 Q 1800 630 2400 228"></path><path d="M 0 225 Q 600 170 1200 400 Q 1800 630 2400 225"></path><path d="M 0 222 Q 600 170 1200 400 Q 1800 630 2400 222"></path><path d="M 0 219 Q 600 170 1200 400 Q 1800 630 2400 219"></path><path d="M 0 216 Q 600 170 1200 400 Q 1800 630 2400 216"></path><path d="M 0 213 Q 600 170 1200 400 Q 1800 630 2400 213"></path><path d="M 0 210 Q 600 170 1200 400 Q 1800 630 2400 210"></path><path d="M 0 207 Q 600 170 1200 400 Q 1800 630 2400 207"></path><path d="M 0 204 Q 600 170 1200 400 Q 1800 630 2400 204"></path><path d="M 0 201 Q 600 170 1200 400 Q 1800 630 2400 201"></path><path d="M 0 198 Q 600 170 1200 400 Q 1800 630 2400 198"></path><path d="M 0 195 Q 600 170 1200 400 Q 1800 630 2400 195"></path><path d="M 0 192 Q 600 170 1200 400 Q 1800 630 2400 192"></path><path d="M 0 189 Q 600 170 1200 400 Q 1800 630 2400 189"></path><path d="M 0 186 Q 600 170 1200 400 Q 1800 630 2400 186"></path><path d="M 0 183 Q 600 170 1200 400 Q 1800 630 2400 183"></path><path d="M 0 180 Q 600 170 1200 400 Q 1800 630 2400 180"></path><path d="M 0 177 Q 600 170 1200 400 Q 1800 630 2400 177"></path><path d="M 0 174 Q 600 170 1200 400 Q 1800 630 2400 174"></path><path d="M 0 171 Q 600 170 1200 400 Q 1800 630 2400 171"></path><path d="M 0 168 Q 600 170 1200 400 Q 1800 630 2400 168"></path><path d="M 0 165 Q 600 170 1200 400 Q 1800 630 2400 165"></path><path d="M 0 162 Q 600 170 1200 400 Q 1800 630 2400 162"></path><path d="M 0 159 Q 600 170 1200 400 Q 1800 630 2400 159"></path><path d="M 0 156 Q 600 170 1200 400 Q 1800 630 2400 156"></path><path d="M 0 153 Q 600 170 1200 400 Q 1800 630 2400 153"></path><path d="M 0 150 Q 600 170 1200 400 Q 1800 630 2400 150"></path><path d="M 0 147 Q 600 170 1200 400 Q 1800 630 2400 147"></path><path d="M 0 144 Q 600 170 1200 400 Q 1800 630 2400 144"></path><path d="M 0 141 Q 600 170 1200 400 Q 1800 630 2400 141"></path><path d="M 0 138 Q 600 170 1200 400 Q 1800 630 2400 138"></path><path d="M 0 135 Q 600 170 1200 400 Q 1800 630 2400 135"></path><path d="M 0 132 Q 600 170 1200 400 Q 1800 630 2400 132"></path><path d="M 0 129 Q 600 170 1200 400 Q 1800 630 2400 129"></path><path d="M 0 126 Q 600 170 1200 400 Q 1800 630 2400 126"></path><path d="M 0 123 Q 600 170 1200 400 Q 1800 630 2400 123"></path><path d="M 0 120 Q 600 170 1200 400 Q 1800 630 2400 120"></path><path d="M 0 117 Q 600 170 1200 400 Q 1800 630 2400 117"></path><path d="M 0 114 Q 600 170 1200 400 Q 1800 630 2400 114"></path><path d="M 0 111 Q 600 170 1200 400 Q 1800 630 2400 111"></path><path d="M 0 108 Q 600 170 1200 400 Q 1800 630 2400 108"></path><path d="M 0 105 Q 600 170 1200 400 Q 1800 630 2400 105"></path><path d="M 0 102 Q 600 170 1200 400 Q 1800 630 2400 102"></path><path d="M 0 99 Q 600 170 1200 400 Q 1800 630 2400 99"></path><path d="M 0 96 Q 600 170 1200 400 Q 1800 630 2400 96"></path><path d="M 0 93 Q 600 170 1200 400 Q 1800 630 2400 93"></path><path d="M 0 90 Q 600 170 1200 400 Q 1800 630 2400 90"></path><path d="M 0 87 Q 600 170 1200 400 Q 1800 630 2400 87"></path><path d="M 0 84 Q 600 170 1200 400 Q 1800 630 2400 84"></path><path d="M 0 81 Q 600 170 1200 400 Q 1800 630 2400 81"></path><path d="M 0 78 Q 600 170 1200 400 Q 1800 630 2400 78"></path><path d="M 0 75 Q 600 170 1200 400 Q 1800 630 2400 75"></path><path d="M 0 72 Q 600 170 1200 400 Q 1800 630 2400 72"></path><path d="M 0 69 Q 600 170 1200 400 Q 1800 630 2400 69"></path><path d="M 0 66 Q 600 170 1200 400 Q 1800 630 2400 66"></path><path d="M 0 63 Q 600 170 1200 400 Q 1800 630 2400 63"></path><path d="M 0 60 Q 600 170 1200 400 Q 1800 630 2400 60"></path><path d="M 0 57 Q 600 170 1200 400 Q 1800 630 2400 57"></path><path d="M 0 54 Q 600 170 1200 400 Q 1800 630 2400 54"></path><path d="M 0 51 Q 600 170 1200 400 Q 1800 630 2400 51"></path><path d="M 0 48 Q 600 170 1200 400 Q 1800 630 2400 48"></path><path d="M 0 45 Q 600 170 1200 400 Q 1800 630 2400 45"></path><path d="M 0 42 Q 600 170 1200 400 Q 1800 630 2400 42"></path><path d="M 0 39 Q 600 170 1200 400 Q 1800 630 2400 39"></path><path d="M 0 36 Q 600 170 1200 400 Q 1800 630 2400 36"></path><path d="M 0 33 Q 600 170 1200 400 Q 1800 630 2400 33"></path><path d="M 0 30 Q 600 170 1200 400 Q 1800 630 2400 30"></path><path d="M 0 27 Q 600 170 1200 400 Q 1800 630 2400 27"></path><path d="M 0 24 Q 600 170 1200 400 Q 1800 630 2400 24"></path><path d="M 0 21 Q 600 170 1200 400 Q 1800 630 2400 21"></path><path d="M 0 18 Q 600 170 1200 400 Q 1800 630 2400 18"></path><path d="M 0 15 Q 600 170 1200 400 Q 1800 630 2400 15"></path><path d="M 0 12 Q 600 170 1200 400 Q 1800 630 2400 12"></path><path d="M 0 9 Q 600 170 1200 400 Q 1800 630 2400 9"></path><path d="M 0 6 Q 600 170 1200 400 Q 1800 630 2400 6"></path></g></svg>