<svg xmlns="http://www.w3.org/2000/svg" version="1.1" xmlns:xlink="http://www.w3.org/1999/xlink" xmlns:svgjs="http://svgjs.dev/svgjs" viewBox="0 0 1422 800" opacity="1"><defs><linearGradient x1="50%" y1="0%" x2="50%" y2="100%" id="oooscillate-grad"><stop stop-color="#957db5" stop-opacity="1" offset="0%"></stop><stop stop-color="#dc4881" stop-opacity="1" offset="100%"></stop></linearGradient></defs><g stroke-width="6" stroke="url(#oooscillate-grad)" fill="none" stroke-linecap="round"><path d="M 0 689 Q 355.5 125 711 400 Q 1066.5 675 1422 689"></path><path d="M 0 676 Q 355.5 125 711 400 Q 1066.5 675 1422 676"></path><path d="M 0 663 Q 355.5 125 711 400 Q 1066.5 675 1422 663"></path><path d="M 0 650 Q 355.5 125 711 400 Q 1066.5 675 1422 650"></path><path d="M 0 637 Q 355.5 125 711 400 Q 1066.5 675 1422 637"></path><path d="M 0 624 Q 355.5 125 711 400 Q 1066.5 675 1422 624"></path><path d="M 0 611 Q 355.5 125 711 400 Q 1066.5 675 1422 611"></path><path d="M 0 598 Q 355.5 125 711 400 Q 1066.5 675 1422 598"></path><path d="M 0 585 Q 355.5 125 711 400 Q 1066.5 675 1422 585"></path><path d="M 0 572 Q 355.5 125 711 400 Q 1066.5 675 1422 572"></path><path d="M 0 559 Q 355.5 125 711 400 Q 1066.5 675 1422 559"></path><path d="M 0 546 Q 355.5 125 711 400 Q 1066.5 675 1422 546"></path><path d="M 0 533 Q 355.5 125 711 400 Q 1066.5 675 1422 533"></path><path d="M 0 520 Q 355.5 125 711 400 Q 1066.5 675 1422 520"></path><path d="M 0 507 Q 355.5 125 711 400 Q 1066.5 675 1422 507"></path><path d="M 0 494 Q 355.5 125 711 400 Q 1066.5 675 1422 494"></path><path d="M 0 481 Q 355.5 125 711 400 Q 1066.5 675 1422 481"></path><path d="M 0 468 Q 355.5 125 711 400 Q 1066.5 675 1422 468"></path><path d="M 0 455 Q 355.5 125 711 400 Q 1066.5 675 1422 455"></path><path d="M 0 442 Q 355.5 125 711 400 Q 1066.5 675 1422 442"></path><path d="M 0 429 Q 355.5 125 711 400 Q 1066.5 675 1422 429"></path><path d="M 0 416 Q 355.5 125 711 400 Q 1066.5 675 1422 416"></path><path d="M 0 403 Q 355.5 125 711 400 Q 1066.5 675 1422 403"></path><path d="M 0 390 Q 355.5 125 711 400 Q 1066.5 675 1422 390"></path><path d="M 0 377 Q 355.5 125 711 400 Q 1066.5 675 1422 377"></path><path d="M 0 364 Q 355.5 125 711 400 Q 1066.5 675 1422 364"></path><path d="M 0 351 Q 355.5 125 711 400 Q 1066.5 675 1422 351"></path><path d="M 0 338 Q 355.5 125 711 400 Q 1066.5 675 1422 338"></path><path d="M 0 325 Q 355.5 125 711 400 Q 1066.5 675 1422 325"></path><path d="M 0 312 Q 355.5 125 711 400 Q 1066.5 675 1422 312"></path><path d="M 0 299 Q 355.5 125 711 400 Q 1066.5 675 1422 299"></path><path d="M 0 286 Q 355.5 125 711 400 Q 1066.5 675 1422 286"></path><path d="M 0 273 Q 355.5 125 711 400 Q 1066.5 675 1422 273"></path><path d="M 0 260 Q 355.5 125 711 400 Q 1066.5 675 1422 260"></path><path d="M 0 247 Q 355.5 125 711 400 Q 1066.5 675 1422 247"></path><path d="M 0 234 Q 355.5 125 711 400 Q 1066.5 675 1422 234"></path><path d="M 0 221 Q 355.5 125 711 400 Q 1066.5 675 1422 221"></path><path d="M 0 208 Q 355.5 125 711 400 Q 1066.5 675 1422 208"></path><path d="M 0 195 Q 355.5 125 711 400 Q 1066.5 675 1422 195"></path><path d="M 0 182 Q 355.5 125 711 400 Q 1066.5 675 1422 182"></path><path d="M 0 169 Q 355.5 125 711 400 Q 1066.5 675 1422 169"></path><path d="M 0 156 Q 355.5 125 711 400 Q 1066.5 675 1422 156"></path><path d="M 0 143 Q 355.5 125 711 400 Q 1066.5 675 1422 143"></path><path d="M 0 130 Q 355.5 125 711 400 Q 1066.5 675 1422 130"></path><path d="M 0 117 Q 355.5 125 711 400 Q 1066.5 675 1422 117"></path><path d="M 0 104 Q 355.5 125 711 400 Q 1066.5 675 1422 104"></path><path d="M 0 91 Q 355.5 125 711 400 Q 1066.5 675 1422 91"></path><path d="M 0 78 Q 355.5 125 711 400 Q 1066.5 675 1422 78"></path><path d="M 0 65 Q 355.5 125 711 400 Q 1066.5 675 1422 65"></path><path d="M 0 52 Q 355.5 125 711 400 Q 1066.5 675 1422 52"></path><path d="M 0 39 Q 355.5 125 711 400 Q 1066.5 675 1422 39"></path><path d="M 0 26 Q 355.5 125 711 400 Q 1066.5 675 1422 26"></path></g></svg>