<svg xmlns="http://www.w3.org/2000/svg" version="1.1" xmlns:xlink="http://www.w3.org/1999/xlink" xmlns:svgjs="http://svgjs.dev/svgjs" viewBox="0 0 2400 800" opacity="1"><defs><linearGradient x1="50%" y1="0%" x2="50%" y2="100%" id="oooscillate-grad"><stop stop-color="#957db5" stop-opacity="1" offset="0%"></stop><stop stop-color="#dc4881" stop-opacity="1" offset="100%"></stop></linearGradient></defs><g stroke-width="6" stroke="url(#oooscillate-grad)" fill="none" stroke-linecap="round"><path d="M 0 1113 Q 600 125 1200 400 Q 1800 675 2400 1113"></path><path d="M 0 1092 Q 600 125 1200 400 Q 1800 675 2400 1092"></path><path d="M 0 1071 Q 600 125 1200 400 Q 1800 675 2400 1071"></path><path d="M 0 1050 Q 600 125 1200 400 Q 1800 675 2400 1050"></path><path d="M 0 1029 Q 600 125 1200 400 Q 1800 675 2400 1029"></path><path d="M 0 1008 Q 600 125 1200 400 Q 1800 675 2400 1008"></path><path d="M 0 987 Q 600 125 1200 400 Q 1800 675 2400 987"></path><path d="M 0 966 Q 600 125 1200 400 Q 1800 675 2400 966"></path><path d="M 0 945 Q 600 125 1200 400 Q 1800 675 2400 945"></path><path d="M 0 924 Q 600 125 1200 400 Q 1800 675 2400 924"></path><path d="M 0 903 Q 600 125 1200 400 Q 1800 675 2400 903"></path><path d="M 0 882 Q 600 125 1200 400 Q 1800 675 2400 882"></path><path d="M 0 861 Q 600 125 1200 400 Q 1800 675 2400 861"></path><path d="M 0 840 Q 600 125 1200 400 Q 1800 675 2400 840"></path><path d="M 0 819 Q 600 125 1200 400 Q 1800 675 2400 819"></path><path d="M 0 798 Q 600 125 1200 400 Q 1800 675 2400 798"></path><path d="M 0 777 Q 600 125 1200 400 Q 1800 675 2400 777"></path><path d="M 0 756 Q 600 125 1200 400 Q 1800 675 2400 756"></path><path d="M 0 735 Q 600 125 1200 400 Q 1800 675 2400 735"></path><path d="M 0 714 Q 600 125 1200 400 Q 1800 675 2400 714"></path><path d="M 0 693 Q 600 125 1200 400 Q 1800 675 2400 693"></path><path d="M 0 672 Q 600 125 1200 400 Q 1800 675 2400 672"></path><path d="M 0 651 Q 600 125 1200 400 Q 1800 675 2400 651"></path><path d="M 0 630 Q 600 125 1200 400 Q 1800 675 2400 630"></path><path d="M 0 609 Q 600 125 1200 400 Q 1800 675 2400 609"></path><path d="M 0 588 Q 600 125 1200 400 Q 1800 675 2400 588"></path><path d="M 0 567 Q 600 125 1200 400 Q 1800 675 2400 567"></path><path d="M 0 546 Q 600 125 1200 400 Q 1800 675 2400 546"></path><path d="M 0 525 Q 600 125 1200 400 Q 1800 675 2400 525"></path><path d="M 0 504 Q 600 125 1200 400 Q 1800 675 2400 504"></path><path d="M 0 483 Q 600 125 1200 400 Q 1800 675 2400 483"></path><path d="M 0 462 Q 600 125 1200 400 Q 1800 675 2400 462"></path><path d="M 0 441 Q 600 125 1200 400 Q 1800 675 2400 441"></path><path d="M 0 420 Q 600 125 1200 400 Q 1800 675 2400 420"></path><path d="M 0 399 Q 600 125 1200 400 Q 1800 675 2400 399"></path><path d="M 0 378 Q 600 125 1200 400 Q 1800 675 2400 378"></path><path d="M 0 357 Q 600 125 1200 400 Q 1800 675 2400 357"></path><path d="M 0 336 Q 600 125 1200 400 Q 1800 675 2400 336"></path><path d="M 0 315 Q 600 125 1200 400 Q 1800 675 2400 315"></path><path d="M 0 294 Q 600 125 1200 400 Q 1800 675 2400 294"></path><path d="M 0 273 Q 600 125 1200 400 Q 1800 675 2400 273"></path><path d="M 0 252 Q 600 125 1200 400 Q 1800 675 2400 252"></path><path d="M 0 231 Q 600 125 1200 400 Q 1800 675 2400 231"></path><path d="M 0 210 Q 600 125 1200 400 Q 1800 675 2400 210"></path><path d="M 0 189 Q 600 125 1200 400 Q 1800 675 2400 189"></path><path d="M 0 168 Q 600 125 1200 400 Q 1800 675 2400 168"></path><path d="M 0 147 Q 600 125 1200 400 Q 1800 675 2400 147"></path><path d="M 0 126 Q 600 125 1200 400 Q 1800 675 2400 126"></path><path d="M 0 105 Q 600 125 1200 400 Q 1800 675 2400 105"></path><path d="M 0 84 Q 600 125 1200 400 Q 1800 675 2400 84"></path><path d="M 0 63 Q 600 125 1200 400 Q 1800 675 2400 63"></path><path d="M 0 42 Q 600 125 1200 400 Q 1800 675 2400 42"></path></g></svg>